<svg id="SvgjsSvg1030" width="288" height="288" xmlns="http://www.w3.org/2000/svg" version="1.1" xmlnsXlink="http://www.w3.org/1999/xlink" xmlnsSvgjs="http://svgjs.com/svgjs">
	<defs id="SvgjsDefs1031">
	</defs>
	<g id="SvgjsG1032">
		<svg xmlns="http://www.w3.org/2000/svg" data-name="Layer 1" viewBox="0 0 64 64" width="288" height="288">
			<path d="M37.45 53.434a3.084 3.084 0 0 1-.345-2.413 3.179 3.179 0 0 1 1.531-1.946l.206-.114a11.065 11.065 0 0 1 0-1.922l-.2-.114a3.177 3.177 0 0 1-1.542-1.946 3.084 3.084 0 0 1 .345-2.413l.347-.566H2a1 1 0 0 0-1 1v10a1 1 0 0 0 1 1h35.792Z" fill="#e9f1fc" class="color000 svgShape">
			</path>
			<rect width="38" height="8" x="1" y="6" rx="1" fill="#e9f1fc" class="color000 svgShape">
			</rect>
			<rect width="38" height="8" x="1" y="25" rx="1" fill="#e9f1fc" class="color000 svgShape">
			</rect>
			<path d="M54 30V13h3l-6-7-6 7h3v17h6zM61.7 45.56l.7-.386a1.124 1.124 0 0 0 .441-1.574l-1.933-3.2a1.236 1.236 0 0 0-1.646-.422l-.706.39a1.282 1.282 0 0 1-1.374-.113A10.3 10.3 0 0 0 54.924 39a1.184 1.184 0 0 1-.786-1.079v-.772A1.179 1.179 0 0 0 52.933 36h-3.866a1.179 1.179 0 0 0-1.2 1.152v.772A1.184 1.184 0 0 1 47.076 39a10.3 10.3 0 0 0-2.255 1.252 1.282 1.282 0 0 1-1.374.113l-.706-.39a1.236 1.236 0 0 0-1.641.425l-1.933 3.2a1.124 1.124 0 0 0 .441 1.574l.7.386a1.115 1.115 0 0 1 .594 1.121 9.2 9.2 0 0 0 0 2.638 1.115 1.115 0 0 1-.602 1.121l-.7.386a1.124 1.124 0 0 0-.441 1.574l1.941 3.2a1.236 1.236 0 0 0 1.646.422l.706-.39a1.282 1.282 0 0 1 1.374.113A10.3 10.3 0 0 0 47.076 57a1.184 1.184 0 0 1 .786 1.079v.772A1.179 1.179 0 0 0 49.067 60h3.866a1.179 1.179 0 0 0 1.2-1.152v-.772A1.184 1.184 0 0 1 54.924 57a10.3 10.3 0 0 0 2.255-1.252 1.282 1.282 0 0 1 1.374-.113l.706.39a1.236 1.236 0 0 0 1.646-.422l1.933-3.2a1.124 1.124 0 0 0-.441-1.574l-.7-.386a1.115 1.115 0 0 1-.594-1.121 9.2 9.2 0 0 0 0-2.638 1.115 1.115 0 0 1 .597-1.124ZM51 53a5 5 0 1 1 5-5 5 5 0 0 1-5 5Z" fill="#e9f1fc" class="color000 svgShape">
			</path>
		</svg>
	</g>
</svg>
